<svg width="199" height="175" viewBox="0 0 199 175" fill="none" xmlns="http://www.w3.org/2000/svg">
<path d="M92.3212 174.633C91.9268 174.277 91.9268 167.291 92.2774 165.066C92.6717 162.663 94.1177 162.752 95.7389 165.288C96.3961 166.312 97.5792 167.958 98.324 168.937L99.6823 170.672L99.9014 167.157C100.121 163.731 100.164 163.597 101.216 163.597H102.311L102.18 169.159C102.092 172.23 101.961 174.811 101.873 174.9C101.435 175.3 99.4633 174.41 99.4633 173.832C99.4633 173.476 99.3318 173.164 99.1127 173.164C98.9375 173.164 97.9297 171.829 96.8343 170.227L94.8625 167.246L94.7749 168.759C94.3806 173.832 94.1177 174.944 93.3728 174.944C92.9346 174.944 92.4526 174.811 92.3212 174.633Z" fill="white"/>
<path d="M72.1656 170.895C67.6525 167.469 69.8434 160.26 75.3642 160.26C76.9416 160.26 78.1246 160.838 79.702 162.307C80.7098 163.241 80.8413 163.731 80.7974 166.134C80.7536 168.67 80.666 168.937 79.1762 170.361C77.8179 171.607 77.2483 171.829 75.4957 171.829C74.0497 171.785 72.9981 171.518 72.1656 170.895ZM77.9932 168.626C79.001 167.513 79.1324 164.888 78.2123 163.686C77.9056 163.197 76.8102 162.752 75.8024 162.618C74.3564 162.396 73.8306 162.529 72.9543 163.375C71.5522 164.71 71.4646 167.246 72.7352 168.626C73.9621 169.96 76.7663 169.96 77.9932 168.626Z" fill="white"/>
<path d="M129.171 168.403C128.25 168.18 128.163 167.335 128.908 166.579C129.214 166.267 129.653 166.223 130.178 166.534C131.493 167.202 133.289 166.534 133.114 165.422C133.026 164.665 132.588 164.443 130.617 164.176C126.673 163.686 125.14 160.838 127.681 158.613C128.864 157.59 131.581 157.189 132.063 157.99C132.632 158.925 131.756 159.815 130.266 159.815C128.952 159.815 128.776 159.948 128.908 160.838C129.039 161.684 129.39 161.862 131.405 162.04C133.158 162.218 133.947 162.574 134.56 163.33C136.4 165.644 134.692 168.759 131.581 168.67C130.66 168.625 129.565 168.536 129.171 168.403Z" fill="white"/>
<path d="M55.2963 164.799C54.902 164.532 55.2963 163.197 57.049 159.459C58.3196 156.7 59.5465 154.475 59.8094 154.475C61.4306 154.52 61.2992 155.276 59.0645 160.171C56.7861 165.066 56.4355 165.511 55.2963 164.799Z" fill="white"/>
<path d="M146.04 159.503C143.367 155.143 141.965 152.651 141.965 152.295C141.965 151.716 146.391 149.091 147.135 149.224C148.45 149.491 148.143 150.426 146.391 151.449C144.463 152.562 144.287 152.918 145.207 154.164C145.777 154.92 145.865 154.92 147.442 153.986C148.8 153.185 149.107 153.096 149.458 153.63C150.071 154.609 149.94 154.787 148.318 155.81C147.398 156.389 146.916 157.012 147.048 157.279C147.968 158.925 148.187 158.969 150.115 157.813C151.955 156.7 151.999 156.7 152.481 157.546C152.832 158.302 152.744 158.524 151.955 158.969C151.386 159.281 150.86 159.637 150.728 159.77C150.465 160.082 147.836 161.595 147.53 161.595C147.398 161.595 146.741 160.66 146.04 159.503Z" fill="white"/>
<path d="M40.7931 156.3C40.3112 155.988 40.7493 155.098 42.8525 152.028L45.5253 148.112L44.4737 147.266C43.466 146.465 43.3783 145.131 44.3423 145.131C44.9995 145.131 49.9946 148.69 50.2575 149.358C50.6957 150.604 49.9508 150.96 48.5925 150.159C47.278 149.358 47.278 149.358 46.4016 150.47C45.9635 151.093 44.8243 152.74 43.9479 154.119C42.2391 156.7 41.8447 156.967 40.7931 156.3Z" fill="white"/>
<path d="M161.025 148.156C159.755 147.444 158.177 145.576 157.87 144.374C157.432 142.55 158.089 140.102 159.404 138.812C161.244 136.943 165.582 136.453 164.925 138.233C164.793 138.589 164.268 138.901 163.786 138.901C161.639 138.901 159.492 140.903 159.492 142.906C159.492 144.33 161.814 146.465 163.347 146.465C165.056 146.465 166.94 144.552 166.94 142.861C166.94 141.749 167.116 141.571 168.08 141.571C169.175 141.571 169.219 141.66 169 143.173C168.343 147.266 164.136 149.892 161.025 148.156Z" fill="white"/>
<path d="M28.9188 146.243C28.4806 145.709 28.4806 145.309 28.875 144.374C29.357 143.306 29.2693 143.084 27.9986 141.749C26.8156 140.503 26.4651 140.369 25.5887 140.77C24.581 141.259 23.2227 140.681 23.2227 139.835C23.2227 139.524 26.7718 137.566 27.2976 137.566C27.429 137.566 28.8312 136.943 30.4085 136.231C32.7308 135.118 33.4757 134.94 34.1768 135.341C34.6587 135.608 35.0531 135.964 35.0531 136.142C35.0969 136.676 30.0142 146.91 29.7513 146.91C29.576 146.91 29.2255 146.599 28.9188 146.243ZM31.3287 139.791C32.3803 137.744 32.1174 137.477 30.1895 138.456C28.4806 139.39 28.4368 139.435 29.1817 140.28C30.1895 141.437 30.54 141.348 31.3287 139.791Z" fill="white"/>
<path d="M125.578 136.587C122.335 133.383 122.423 130.357 125.841 127.287L127.155 126.085L125.972 119.5C125.359 115.851 124.745 112.335 124.57 111.668C124.395 110.689 124.482 110.422 125.052 110.422C125.446 110.422 125.753 110.511 125.753 110.6C125.753 110.867 127.988 122.748 128.163 123.46C128.251 123.638 128.294 124.261 128.338 124.884C128.382 125.685 128.689 126.041 129.609 126.263C131.668 126.708 132.764 127.465 134.122 129.289C137.145 133.472 134.516 138.456 129.302 138.456C127.812 138.456 127.199 138.144 125.578 136.587Z" fill="white"/>
<path d="M57.1804 135.163C53.938 133.961 51.7034 130.58 51.7034 126.886C51.7034 122.525 56.1288 118.921 60.5105 119.811C61.5621 119.989 62.5698 120.167 62.7451 120.212C63.5338 120.256 66.2942 123.193 67.0391 124.795C68.1783 127.109 68.1345 128.622 66.9515 131.158C65.2426 134.851 61.0363 136.587 57.1804 135.163Z" fill="white"/>
<path d="M87.8519 133.427C87.3699 133.161 84.6971 132.449 81.9366 131.915C76.4596 130.891 70.5444 129.245 69.931 128.622C69.0108 127.732 71.2016 127.732 73.9621 128.622C78.5628 130.046 86.8003 131.47 87.3261 130.936C88.0709 130.179 89.3416 130.357 90.5685 131.336C91.5324 132.093 92.3649 132.226 96.6151 132.226C100.778 132.226 101.523 132.315 101.523 132.938C101.523 133.561 100.778 133.605 95.9141 133.472C92.8469 133.427 90.1741 133.472 89.9989 133.694C89.5607 134.139 88.8596 134.05 87.8519 133.427Z" fill="white"/>
<path d="M103.932 133.472C103.363 132.893 103.231 131.781 103.757 131.781C108.314 131.692 111.951 131.203 116.026 130.046C121.328 128.577 122.467 128.399 121.985 129.156C121.24 130.402 115.369 132.048 108.226 133.071C106.912 133.294 105.51 133.561 105.159 133.739C104.765 133.872 104.239 133.783 103.932 133.472Z" fill="white"/>
<path d="M175.704 131.336C174.871 130.847 173.732 130.224 173.206 129.912C172.637 129.645 172.198 129.245 172.198 129.022C172.198 128.844 171.979 128.666 171.716 128.666C170.928 128.666 169.92 127.331 170.183 126.664C170.577 125.596 171.41 125.863 174.389 127.999C177.807 130.446 179.034 130.58 179.866 128.577C180.655 126.619 180.261 126.041 176.712 123.727C175.09 122.703 173.644 121.769 173.557 121.725C173.513 121.636 173.688 121.191 174.039 120.746C174.608 119.856 174.784 119.945 178.333 122.347C181.926 124.795 182.057 124.973 182.189 126.753C182.364 129.022 181.794 130.224 179.954 131.336C178.201 132.449 177.588 132.449 175.704 131.336Z" fill="white"/>
<path d="M14.9852 129.022C14.2842 127.954 13.5831 126.886 13.4517 126.575C13.2326 126.263 14.0213 125.507 15.5548 124.572C16.8693 123.771 17.9647 122.97 17.9647 122.792C17.9647 122.57 18.1838 122.436 18.4029 122.436C18.6658 122.436 19.6736 121.902 20.6375 121.235C22.2149 120.167 22.434 120.123 23.0474 120.746C23.6609 121.369 23.4856 121.636 20.9443 123.415C19.4545 124.528 17.7457 125.685 17.176 125.952C16.0806 126.53 16.1683 127.776 17.4389 129.245C18.0524 129.957 18.0524 130.09 17.5266 130.446C16.5188 131.114 16.3435 131.025 14.9852 129.022Z" fill="white"/>
<path d="M131.712 124.305C131.449 123.86 132.632 122.703 134.648 121.413C136.576 120.167 137.934 118.966 142.184 114.783C145.12 111.935 146.566 110.11 147.574 108.019C149.195 104.682 149.545 104.37 150.334 105.349C151.254 106.506 149.326 109.576 144.594 114.382C140.081 118.966 137.627 121.146 134.516 123.282C132.413 124.75 132.063 124.884 131.712 124.305Z" fill="white"/>
<path d="M97.6229 123.638C97.0971 123.148 90.5685 119.01 83.5579 114.783C82.0681 113.893 80.666 113.003 80.4031 112.78C80.184 112.558 78.8257 111.712 77.4674 110.911C76.0653 110.111 74.926 109.31 74.926 109.087C74.926 108.865 75.5833 108.598 76.372 108.464C87.1508 106.64 86.8441 106.684 89.0349 107.752C90.0427 108.286 91.2257 108.998 91.5763 109.31C91.9268 109.621 93.1098 110.378 94.2052 110.956C95.3006 111.534 96.8342 112.424 97.5791 112.914L99.025 113.759V119.01C99.025 124.127 98.806 124.795 97.6229 123.638Z" fill="white"/>
<path d="M101.26 119.767C101.303 117.319 101.391 115.317 101.479 115.317C102.048 115.317 105.028 116.785 105.641 117.364C107.35 118.921 104.634 124.216 102.048 124.216C101.216 124.216 101.172 123.949 101.26 119.767Z" fill="white"/>
<path d="M58.7139 110.778C58.6701 105.483 58.5387 103.792 58.0567 103.124C56.7422 101.344 57.4871 99.2975 59.4588 99.2975C61.7811 99.2975 62.7889 102.234 60.9486 103.614C60.379 104.014 60.2475 105.171 60.1599 109.399C60.0723 117.853 60.0723 117.542 59.3712 117.542C58.8016 117.542 58.7139 116.474 58.7139 110.778Z" fill="white"/>
<path d="M108.928 116.696C108.752 116.474 106.167 114.961 103.056 113.314C99.989 111.668 94.1614 108.286 90.1303 105.794C86.0554 103.347 82.0681 100.899 81.2355 100.454C80.403 99.965 79.7458 99.342 79.7458 99.0305C79.7458 98.0516 78.4313 97.0726 77.1168 97.0726C76.2405 97.0726 73.743 95.6042 68.9231 92.3113C55.5591 83.1447 56.304 83.9012 55.9535 79.9408C55.7782 78.2054 55.2962 74.4231 54.8581 71.5307L54.0256 66.2354L54.9895 65.301C55.5153 64.767 58.4072 61.9191 61.4305 58.9377C64.4539 55.9119 67.039 53.4645 67.1705 53.4645C67.3019 53.4645 68.0468 54.5769 68.8355 55.9564L70.2376 58.4483L66.2065 62.5421C61.6058 67.2589 61.6934 66.8139 62.9203 75.669C63.709 81.5428 63.1394 80.7863 70.5444 85.5476C73.3048 87.3275 78.4313 90.7094 81.9366 92.9788C85.4419 95.2927 89.3854 97.8736 90.6999 98.719C92.0144 99.609 93.5918 100.632 94.2052 101.077C95.2568 101.789 95.4759 101.789 98.9812 100.944L102.662 100.009L104.458 101.033C106.912 102.412 112.477 105.483 114.405 106.506C116.552 107.619 117.428 108.687 117.691 110.467C118.041 112.647 117.296 114.204 115.193 115.762C113.747 116.785 112.915 117.097 111.25 117.097C110.111 117.097 109.059 116.919 108.928 116.696Z" fill="white"/>
<path d="M6.30954 112.78C5.95901 111.846 5.52085 110.467 5.3894 109.71C5.17032 108.509 5.30177 108.331 6.87916 107.663C7.7993 107.263 9.9463 106.373 11.699 105.616C15.2043 104.103 15.2919 104.148 16.2559 107.085C16.5626 108.064 17.0007 109.087 17.2198 109.399C17.4389 109.71 17.4827 110.155 17.3075 110.422C16.694 111.401 15.6863 110.778 14.8976 108.865C14.1089 106.951 14.0212 106.907 12.9258 107.396C12.0495 107.797 11.8742 108.108 12.1371 108.82C13.1449 111.935 11.6551 113.403 10.4283 110.467C9.77104 108.776 9.6834 108.731 8.588 109.221C7.2735 109.844 7.22969 110.022 8.14983 111.801C8.50036 112.558 8.71944 113.448 8.588 113.804C8.14983 114.961 7.01061 114.427 6.30954 112.78Z" fill="white"/>
<path d="M185.606 112.602C183.459 111.623 181.487 110.867 181.225 110.867C180.962 110.867 180.48 110.689 180.129 110.466C179.603 110.155 179.647 109.71 180.348 107.752C181.75 103.747 184.336 102.635 186.395 105.127C187.008 105.883 187.534 106.64 187.534 106.818C187.534 106.996 188.673 106.996 190.075 106.818C191.434 106.684 192.617 106.595 192.704 106.684C192.792 106.729 192.661 107.174 192.442 107.619C192.135 108.153 191.083 108.642 189.331 108.998C187.841 109.31 186.658 109.799 186.658 110.11C186.658 110.422 187.534 111 188.586 111.445C190.119 112.068 190.47 112.424 190.295 113.136C190.163 113.581 189.944 114.071 189.769 114.16C189.637 114.249 187.753 113.537 185.606 112.602ZM185.431 107.797C185.519 107.174 185.256 106.551 184.774 106.239C184.116 105.839 183.81 105.928 183.109 106.818C182.013 108.153 182.057 108.865 183.284 109.399C184.467 109.977 185.256 109.399 185.431 107.797Z" fill="white"/>
<path d="M43.904 110.778C43.2029 110.066 43.2468 109.31 43.9478 108.687C44.7803 108.019 46.1386 109.087 45.9196 110.244C45.7443 111.267 44.6489 111.534 43.904 110.778Z" fill="white"/>
<path d="M136.663 109.933C135.743 108.909 135.393 108.108 135.393 106.907C135.436 105.038 136.006 104.148 137.846 103.169C139.161 102.501 139.292 102.501 139.993 103.302C140.432 103.792 141.045 104.192 141.352 104.192C142.053 104.192 143.28 106.462 143.28 107.752C143.28 108.286 142.71 109.31 142.009 110.022C140.256 111.801 138.372 111.757 136.663 109.933Z" fill="white"/>
<path d="M41.5379 106.951C40.0043 105.216 37.2439 101.344 37.2439 100.899C37.2439 100.766 37.5068 100.632 37.8573 100.632C38.4708 100.632 41.2312 103.97 43.1153 106.951C44.2983 108.82 43.2029 108.82 41.5379 106.951Z" fill="white"/>
<path d="M121.59 107.841C121.108 107.663 118.523 106.284 115.894 104.815C111.381 102.234 106.518 99.5644 103.757 98.096C103.056 97.74 102.53 97.384 102.53 97.3395C102.53 97.1616 103.889 92.8897 104.371 91.5993C104.721 90.7093 104.984 90.4868 105.378 90.8428C105.685 91.1098 108.446 92.6228 111.557 94.2247C114.667 95.8711 117.691 97.5175 118.304 97.8735C118.918 98.274 120.67 99.253 122.248 100.054C126.06 102.012 126.454 102.368 126.761 104.192C126.98 105.305 126.848 106.017 126.279 106.773C125.446 107.841 123.124 108.375 121.59 107.841Z" fill="white"/>
<path d="M70.0624 104.771C67.8277 102.768 65.1111 100.232 56.3478 91.8217L52.492 88.1283L53.7189 86.7934C54.3761 86.0814 55.121 85.5029 55.2963 85.5029C55.5153 85.5029 56.9175 86.4819 58.451 87.6388C62.745 90.9762 71.815 97.2059 76.2405 99.7868C77.555 100.543 79.3514 101.656 80.184 102.19C81.0165 102.724 82.331 103.525 83.032 103.97L84.3465 104.815L80.5345 105.572C72.4285 107.129 72.7352 107.173 70.0624 104.771Z" fill="white"/>
<path d="M130.135 106.017C128.952 105.794 128.557 105.527 128.47 104.682C128.294 103.658 128.382 103.614 130.398 103.925C132.764 104.237 133.421 104.682 133.07 105.705C132.764 106.462 132.588 106.462 130.135 106.017Z" fill="white"/>
<path d="M138.022 100.677C138.022 98.4075 136.62 96.6721 133.158 94.7587C131.756 93.9577 130.573 93.2012 130.573 93.0677C130.573 92.8897 131.055 92.2223 131.624 91.4658C132.194 90.7538 134.297 88.1729 136.269 85.7256C138.197 83.2782 140.125 80.8753 140.563 80.3858C140.957 79.8963 142.403 77.9829 143.762 76.1585C146.259 72.7766 146.391 72.3761 147.004 66.8139C147.135 65.7014 147.311 64.322 147.442 63.699C147.53 63.076 147.749 61.6076 147.88 60.3616C148.669 52.886 149.458 47.9022 149.984 47.4127C150.203 47.1902 153.095 55.5114 153.839 58.4927C154.321 60.4506 154.234 60.8511 153.138 63.61C150.641 69.5727 141.396 86.482 137.321 92.3558C136.663 93.3347 137.189 94.4027 138.285 94.4027C138.591 94.4027 139.205 94.9367 139.643 95.5596C140.212 96.4941 140.256 96.8946 139.862 97.562C139.555 98.007 139.336 98.986 139.336 99.6979C139.336 100.41 139.205 101.3 139.073 101.7C138.591 102.991 138.022 102.457 138.022 100.677Z" fill="white"/>
<path d="M125.753 99.3864C124.176 98.4964 121.371 96.9835 119.531 96.0491C117.647 95.1146 116.113 94.2246 116.113 94.0466C116.113 93.7797 118.48 91.1543 123.913 85.414C124.745 84.4795 125.622 83.7231 125.841 83.7231C126.629 83.7231 127.944 81.8987 127.944 80.7862C127.944 80.0297 129.083 78.2498 131.362 75.4019C136.97 68.3267 137.846 66.9028 137.978 64.3664C138.022 63.165 138.153 61.3405 138.285 60.3616C139.161 52.3074 139.336 48.1691 138.81 45.1432C138.46 43.3188 138.46 43.2743 141.396 40.3819C143.017 38.78 144.463 37.4451 144.638 37.4451C144.813 37.4451 145.558 38.7355 146.303 40.3374C147.749 43.4523 147.924 45.1877 147.223 49.0591C146.96 50.3495 146.566 53.0194 146.347 54.9773C146.128 56.9797 145.646 60.5841 145.251 63.0315C144.901 65.4789 144.506 68.4157 144.375 69.5727C144.2 71.8421 143.586 72.9545 139.993 77.2709C138.767 78.7393 137.583 80.2522 137.321 80.6527C136.97 81.3202 134.735 84.0346 130.792 88.6179C129.872 89.7303 128.689 91.0653 128.207 91.6437L127.33 92.6227L128.733 94.0021C130.573 95.8266 131.274 98.0515 130.573 99.7869C130.266 100.499 129.697 101.077 129.302 101.077C128.908 101.077 127.33 100.321 125.753 99.3864Z" fill="white"/>
<path d="M155.329 99.787C154.979 98.6301 155.373 97.9626 156.425 97.9626C156.994 97.9626 157.476 97.2506 158.177 95.4262C158.703 94.0023 159.36 92.4448 159.667 91.9553C159.93 91.4659 160.456 90.1754 160.762 89.063C161.113 87.9505 161.551 86.3931 161.77 85.6366C162.164 84.2127 162.734 83.8122 163.172 84.5242C163.523 85.1471 160.806 93.9133 159.842 95.1147C159.667 95.3817 159.097 96.7166 158.659 98.0071C158.002 100.01 157.695 100.454 156.731 100.543C155.943 100.632 155.548 100.454 155.329 99.787Z" fill="white"/>
<path d="M32.6432 99.164C28.6998 97.8735 27.2538 92.6228 30.1019 89.7749C31.3287 88.4844 34.2644 87.8614 35.9295 88.5289C38.6023 89.5969 40.4425 92.5338 40.0044 94.9367C39.4786 97.651 35.316 100.054 32.6432 99.164Z" fill="white"/>
<path d="M90.2618 95.6931C87.0193 93.5127 83.6455 91.3322 82.813 90.7983C81.9805 90.2198 79.8773 88.8404 78.1246 87.6389C76.4158 86.482 74.8384 85.503 74.6631 85.503C74.4879 85.503 73.743 85.058 72.9981 84.4795C72.2532 83.9011 70.5444 82.7886 69.1861 82.0322C66.1189 80.2967 65.6808 79.7182 65.4617 77.6268C65.3302 76.6924 65.0673 74.601 64.8483 72.9545C64.1034 67.9263 64.0596 68.0153 67.8278 64.3664C69.6681 62.542 71.4207 61.0291 71.6398 61.0291C71.9027 61.0291 73.5239 62.72 75.2766 64.8114C77.073 66.9028 78.6504 68.5937 78.8257 68.5937C79.0448 68.5937 79.3077 70.5516 79.4829 72.9545C79.8773 79.0063 80.0525 79.4513 82.5063 81.0532C83.6455 81.7652 84.6971 82.3881 84.8285 82.3881C84.96 82.3881 85.8801 82.9666 86.8879 83.6786C87.8957 84.3905 90.3494 85.9925 92.3211 87.2384L95.9141 89.5523L96.177 91.8662C96.3522 93.1567 96.3961 95.3816 96.3084 96.8945L96.177 99.6089L90.2618 95.6931Z" fill="white"/>
<path d="M191.521 97.117C188.98 95.9601 186.877 94.8031 186.789 94.5806C186.526 93.7797 188.892 89.0629 189.506 89.0629C190.514 89.0629 190.645 89.7748 189.944 91.4658C189.068 93.5572 189.112 93.7352 190.382 94.3136C191.434 94.8031 191.521 94.7141 192.179 93.0677C192.924 91.1988 193.099 91.0653 194.063 91.6883C194.545 91.9997 194.545 92.3112 194.063 93.7352C193.493 95.2481 193.537 95.4261 194.326 96.0046C195.553 96.939 195.728 96.8055 196.56 94.6251C197.261 92.6672 197.743 92.3112 198.795 92.9787C199.146 93.2012 199.058 93.7797 198.444 95.1591C198.006 96.1826 197.437 97.5175 197.174 98.1405C196.955 98.8079 196.604 99.2974 196.429 99.2529C196.21 99.2529 194.019 98.274 191.521 97.117Z" fill="white"/>
<path d="M1.13923 95.6486C0.963961 94.8476 1.35831 94.1802 2.84807 92.6227C4.90744 90.5313 5.38942 89.2854 4.07492 89.6858C3.63676 89.8193 2.54135 90.0418 1.66502 90.2198C0.0876325 90.4868 0 90.4423 0 89.3744C0 88.3954 0.219082 88.1729 1.66502 87.9949C2.54135 87.8614 4.95125 87.4164 6.96681 87.0605C8.98236 86.66 10.6912 86.393 10.735 86.482C11.1294 86.9715 11.6113 91.7773 11.3484 92.5337C10.5598 94.7141 7.62405 95.3816 6.00285 93.7352C5.43323 93.1567 5.12652 93.2902 3.59294 94.8476C2.62898 95.8266 1.75266 96.6276 1.62121 96.6276C1.53357 96.6276 1.31449 96.1826 1.13923 95.6486ZM9.11381 91.1543C9.33289 89.1964 8.98236 88.7514 7.53642 88.9739C6.44101 89.1074 6.30956 89.2854 6.48483 90.3088C6.92299 92.8452 8.85091 93.4682 9.11381 91.1543Z" fill="white"/>
<path d="M112.389 92.2222C112.126 91.9998 110.417 91.0208 108.533 90.0418L105.072 88.3064L110.286 83.1001C113.134 80.2523 115.719 77.9384 116.026 77.9384C116.333 77.9384 117.735 78.5168 119.137 79.2733C121.065 80.2523 121.81 80.9197 122.204 81.9432C122.642 83.2336 122.554 83.4561 121.152 84.9246C120.32 85.8145 118.392 87.9059 116.858 89.5969C114.229 92.4892 113.265 93.0677 112.389 92.2222Z" fill="white"/>
<path d="M31.9859 85.3251C31.4601 83.9012 30.2332 78.5614 30.2332 77.6714C30.2332 77.3154 30.4961 77.0485 30.8028 77.0485C31.241 77.0485 33.1689 83.2337 33.4756 85.6811C33.6071 86.66 32.3802 86.3486 31.9859 85.3251Z" fill="white"/>
<path d="M45.4376 81.2757C40.6178 76.4699 40.3111 76.0249 40.4864 74.6899C40.6178 73.889 40.8369 72.1535 40.9683 70.7741L41.2312 68.2822L43.5097 67.9707C44.7804 67.8372 47.1903 67.7037 48.8991 67.7037H52.0101L52.5359 72.0645C52.8426 74.4229 53.2369 77.0038 53.456 77.7158C53.6751 78.4723 53.938 79.9852 54.0256 81.1422C54.1571 83.0111 54.0694 83.3226 52.5797 84.791C51.6595 85.681 50.8708 86.3929 50.7394 86.3929C50.6518 86.3929 48.2419 84.079 45.4376 81.2757Z" fill="white"/>
<path d="M93.8109 84.5241C93.5918 83.9456 93.548 83.3227 93.6356 83.1447C93.7671 82.9222 93.2413 82.2102 92.4964 81.5872C91.4448 80.6528 91.0943 79.8963 90.8752 78.1164C90.6561 76.2475 90.7437 75.8025 91.3133 75.58C91.8829 75.3575 92.2335 75.669 92.7155 76.8259C93.0222 77.6714 93.3289 78.6059 93.3289 78.9618C93.3289 79.2733 93.8109 79.8518 94.4243 80.1633C95.0377 80.4748 95.5197 80.8753 95.5197 81.0533C95.5197 81.2313 95.9141 81.8097 96.396 82.3882C97.5791 83.7676 97.4914 84.5686 96.1331 85.0581C94.5119 85.6811 94.2052 85.6366 93.8109 84.5241Z" fill="white"/>
<path d="M99.5508 85.0136C98.1487 84.4796 98.5869 83.1447 101.041 80.6528C102.092 79.5848 102.968 78.2944 102.968 77.7604C103.012 76.559 103.889 75.3575 104.634 75.58C104.896 75.7135 105.159 76.3365 105.159 77.0484C105.159 79.4958 104.634 80.8753 103.407 81.7207C102.706 82.2102 102.18 82.8777 102.18 83.2782C102.355 85.5476 101.742 85.9481 99.5508 85.0136Z" fill="white"/>
<path d="M161.595 81.0978C157.388 78.3834 156.775 73.7111 160.149 70.3737C161.551 68.9943 161.945 68.8608 164.268 68.8163C166.502 68.8163 167.072 68.9943 168.562 70.1957C174.082 74.69 172.067 82.3882 165.319 82.3882C164.18 82.3882 162.909 81.9432 161.595 81.0978Z" fill="white"/>
<path d="M96.9218 80.3412C95.5635 79.3623 94.6434 77.4043 94.6434 75.4019V73.6665L98.0611 73.7555C101.435 73.8 101.435 73.8 101.566 75.0459C101.785 76.6479 100.515 79.4958 99.2003 80.3857C97.9734 81.1867 98.1049 81.1867 96.9218 80.3412Z" fill="white"/>
<path d="M106.255 75.402C106.43 73.7555 106.605 71.9311 106.737 71.3527C106.824 70.8187 106.737 69.9732 106.474 69.4837C106.079 68.7273 105.729 68.6383 104.283 68.8608C102.662 69.1278 102.53 69.0387 102.048 67.8818C101.742 67.1698 101.566 66.2354 101.566 65.8349C101.566 65.3899 101.435 65.0339 101.216 65.0339C100.69 65.0339 101.084 60.1391 101.742 57.6917C102.662 54.3989 105.159 52.5745 108.752 52.5745C110.943 52.619 112.389 53.1974 114.273 54.8439C116.376 56.7128 116.99 58.3592 116.99 62.275C116.99 65.3009 116.815 66.1464 115.675 68.5048C114.361 71.0857 110.768 75.046 107.394 77.4489L105.992 78.4724L106.255 75.402Z" fill="white"/>
<path d="M119.181 76.8704C116.99 75.7579 116.376 75.1794 116.464 74.5565C116.552 74.1115 117.691 71.3081 119.005 68.3712C120.364 65.4343 122.554 60.5396 123.913 57.5137C125.841 53.2864 126.717 51.8179 127.681 51.284C128.382 50.8835 130.441 49.504 132.282 48.1691C134.078 46.8786 135.831 45.7217 136.094 45.5882C136.751 45.3212 137.277 48.8366 136.97 51.373C136.795 52.3964 136.62 54.4433 136.488 55.9118C136.4 57.3802 136.181 60.2281 136.006 62.275L135.699 65.9683L131.186 71.7086C128.689 74.8234 126.498 77.4933 126.323 77.6268C126.147 77.7158 125.096 77.9383 124 78.1163C122.292 78.3388 121.634 78.1608 119.181 76.8704Z" fill="white"/>
<path d="M87.2822 77.1374C86.5811 76.7369 85.1352 75.6245 84.1712 74.69C82.4186 73.0881 82.3748 72.9546 83.032 72.0201C83.9522 70.6852 83.9083 68.5938 82.9444 68.5938C82.55 68.5938 81.4984 67.7928 80.6221 66.8584C79.3514 65.4789 78.9571 64.6779 78.738 62.987C78.6066 61.7856 78.6504 60.6286 78.8695 60.3616C79.0447 60.1391 79.3076 59.3382 79.4829 58.6707C79.921 56.8018 83.0758 54.0429 85.661 53.2864C88.2462 52.53 92.3211 52.797 93.4603 53.8204C93.9423 54.2654 94.2052 55.0664 94.1176 56.3123C94.1176 57.3358 94.3805 58.7597 94.7748 59.5162C95.1692 60.2726 95.3882 61.0291 95.2568 61.1626C95.1253 61.2961 95.4321 62.0081 96.0017 62.7645C96.7027 63.788 96.8342 64.233 96.4836 64.6779C96.2207 65.0339 95.9578 66.2799 95.8702 67.4813C95.7388 69.7062 95.7388 69.7062 93.8108 70.1957C91.7077 70.6852 91.138 71.4417 89.9988 75.135C89.6483 76.4254 89.1663 77.5824 88.991 77.6714C88.8158 77.8049 88.0271 77.5824 87.2822 77.1374Z" fill="white"/>
<path d="M29.9704 74.334C29.7951 73.978 29.5322 71.9756 29.4446 69.8397C29.2693 66.5913 29.3569 65.9238 29.8827 65.9238C30.4085 65.9238 30.6276 66.8138 30.8905 69.9732C31.1534 73.9335 30.8029 75.6689 29.9704 74.334Z" fill="white"/>
<path d="M163.26 66.1464C163.128 65.7459 162.997 64.5 162.997 63.432C162.997 62.0081 163.172 61.4741 163.654 61.4741C164.268 61.4741 164.355 61.7856 164.487 65.3455C164.531 66.6804 163.698 67.2144 163.26 66.1464Z" fill="white"/>
<path d="M41.8009 65.3898C41.4503 64.8114 43.5535 53.5978 44.6927 49.9045C46.4016 44.4312 50.0822 38.2905 53.938 34.3747C56.3479 31.9718 62.0879 28.1449 65.2865 26.81C70.6759 24.6296 77.9494 24.6296 81.8052 26.81C83.3388 27.6999 89.6922 32.4167 92.6717 34.9531L93.9862 36.0656L92.0145 38.1125C90.218 39.9814 90.0427 40.3374 90.0427 42.3398C90.0427 43.5858 89.9551 44.5647 89.8236 44.5647C89.6046 44.5202 85.7925 41.6723 83.1197 39.5364L81.5423 38.246L75.0575 38.6465L68.6165 39.0025L68.2222 41.0049C68.0469 42.1173 67.5211 44.5647 67.0391 46.4781C66.5571 48.3916 66.1628 50.305 66.1628 50.7945C66.1628 51.2394 65.8999 51.8179 65.5494 51.9959C65.1988 52.1739 62.044 55.1553 58.4949 58.5816C54.9458 62.008 51.7034 64.9448 51.309 65.1228C50.2136 65.5233 42.02 65.7458 41.8009 65.3898Z" fill="white"/>
<path d="M26.7279 63.3875C23.0474 60.8066 22.7845 56.6238 26.1145 53.9539C27.6481 52.7525 30.8029 52.7079 32.687 53.8649C34.1329 54.7549 35.4912 57.2023 35.4912 58.9377C35.4912 60.3171 33.8262 62.8535 32.4241 63.5655C30.8467 64.3664 27.9986 64.2775 26.7279 63.3875Z" fill="white"/>
<path d="M162.164 60.2283C161.858 59.6498 161.858 59.2493 162.208 58.8933C162.909 58.1813 164.311 59.0713 164.311 60.1393C164.311 61.2962 162.734 61.3407 162.164 60.2283Z" fill="white"/>
<path d="M161.595 53.3755C161.025 50.2161 160.981 49.1926 161.376 48.9257C161.945 48.5697 162.866 51.8625 163.085 55.1999C163.304 58.7597 162.34 57.5583 161.595 53.3755Z" fill="white"/>
<path d="M31.5916 51.284C31.1973 51.017 31.1096 50.4385 31.3287 49.415C31.8545 46.9232 34.834 39.6255 37.2001 34.9532C38.427 32.5503 39.4348 30.3254 39.4348 29.9694C39.4348 29.6579 39.6977 29.3019 40.0482 29.1684C40.3987 29.0349 41.7132 27.522 42.9401 25.8311C44.2107 24.0956 45.832 22.0487 46.533 21.2923C47.2341 20.4913 48.1104 19.3343 48.4609 18.6669C48.8115 17.9549 49.4249 17.4209 49.8192 17.4209C50.2136 17.4209 51.0023 17.0204 51.5281 16.4865C52.8426 15.2405 53.8503 15.819 52.6673 17.1539C52.1853 17.6434 51.5719 18.5334 51.309 19.1119C51.0461 19.6458 50.4327 20.0908 50.0383 20.0908C48.6362 20.0908 42.9839 27.433 39.4786 33.7072C36.762 38.5575 34.615 43.6748 33.3443 48.0801C32.3365 51.8179 32.3803 51.7735 31.5916 51.284Z" fill="white"/>
<path d="M126.279 47.5017C126.323 46.2113 125.972 45.0098 125.359 43.9419C124.789 43.0519 123.781 41.183 123.124 39.7591L121.941 37.2227L115.851 37.3562L109.76 37.4897L105.466 42.162C100.997 46.9233 100.471 47.2347 97.842 46.5228C96.9657 46.2558 97.0095 46.1668 98.6307 44.4759C99.8138 43.2299 100.34 42.251 100.383 41.272C100.471 39.0916 100.34 38.6911 98.8936 36.8222L97.5353 35.0868L101.523 31.1709C103.757 29.035 106.123 26.9881 106.781 26.5876C111.031 24.2737 113.265 23.6953 117.691 23.6508C120.714 23.6508 125.052 24.2737 126.848 24.9412C131.099 26.6321 143.28 33.9743 143.28 34.8643C143.28 36.0657 129.39 48.2137 126.98 49.1037C126.41 49.3706 126.279 49.1037 126.279 47.5017Z" fill="white"/>
<path d="M158.396 46.3002C154.672 45.2322 152.788 40.2929 154.803 36.9111C155.548 35.6651 158.309 34.3302 160.149 34.3302C161.726 34.3302 163.961 35.2647 165.056 36.3771C165.933 37.2226 166.984 40.026 167.028 41.4499C167.072 43.0963 165.407 45.4102 163.61 46.1667C161.989 46.8787 160.368 46.9232 158.396 46.3002Z" fill="white"/>
<path d="M92.7593 43.8973C92.1021 43.2743 91.5763 42.5623 91.5763 42.3399C91.5763 41.7169 95.5636 37.4451 96.177 37.4451C96.9657 37.4451 98.1488 39.4475 98.1488 40.7824C98.1488 41.8949 95.4321 45.0097 94.4244 45.0097C94.2053 45.0097 93.4166 44.5203 92.7593 43.8973Z" fill="white"/>
<path d="M153.576 31.9718C150.597 27.7445 146.347 22.7162 142.973 19.4679C139.687 16.264 139.029 15.196 140.3 15.196C141.001 15.196 147.004 21.2478 149.764 24.7631C151.123 26.4986 152.437 28.1005 152.656 28.323C153.533 29.1239 154.979 31.4378 155.285 32.4168C155.811 34.1077 154.935 33.8407 153.576 31.9718Z" fill="white"/>
<path d="M63.6214 20.8918C63.3585 20.6249 63.0956 19.9574 63.0956 19.4679C63.0956 18.9339 61.8688 17.243 60.4228 15.6856L57.7938 12.8377L56.1288 13.3717C52.1853 14.5286 48.7677 13.4607 47.0588 10.4793C45.6567 8.07639 45.6129 5.94048 46.8397 3.89357C47.8475 2.24714 50.9147 0.511719 52.7988 0.511719C55.3839 0.511719 58.5825 2.87012 59.5465 5.4955C60.0285 6.83045 59.8532 9.45583 59.1083 10.7908C58.7578 11.5472 59.0645 12.0812 61.2115 14.5286C64.2348 17.955 65.3741 18.1775 68.7041 16.086C73.3486 13.1937 86.8441 8.83286 88.8158 9.58933C89.5607 9.90082 89.5607 9.94531 88.772 10.5683C88.29 10.9243 87.2823 11.1913 86.4936 11.1913C84.5218 11.1913 74.8822 14.4396 71.0264 16.442C68.2659 17.8215 67.7402 18.311 67.302 19.6459C66.9076 20.9363 66.5571 21.2478 65.5055 21.3368C64.7606 21.4258 63.9281 21.2033 63.6214 20.8918Z" fill="white"/>
<path d="M92.6278 17.4655C90.3932 16.4866 89.5169 13.1047 91.0504 11.2358C91.883 10.1234 94.6872 9.32239 95.5635 9.90087C95.9141 10.1234 97.0095 10.1679 97.9734 10.0344C99.0688 9.90087 99.9452 9.98986 100.12 10.2569C100.296 10.5683 99.8137 10.7463 98.8498 10.7463H97.3162L97.9734 12.3038C98.8059 14.3062 98.7621 15.3296 97.7982 16.5311C96.9657 17.599 94.1176 18.0885 92.6278 17.4655Z" fill="white"/>
<path d="M119.4 15.4186C116.99 14.3952 113.923 13.2827 112.608 12.9712C109.015 12.1703 107.219 11.4583 107 10.8353C106.912 10.5683 107.175 10.3013 107.613 10.3013C108.665 10.3013 114.054 11.6808 114.58 12.0813C114.843 12.2592 115.631 12.5262 116.332 12.7042C117.077 12.8822 118.918 13.6387 120.451 14.3507L123.212 15.6411L125.49 14.2172C128.908 11.9923 130.704 10.0343 130.354 8.96639C130.178 8.43241 130.047 7.14197 130.047 6.07402C130.047 2.29168 133.158 -0.244714 137.233 0.155769C139.073 0.333761 139.687 0.689747 141.308 2.29168C144.769 5.76253 144.682 9.94535 141.089 12.4372C139.818 13.3272 139.161 13.4607 137.014 13.3272C135.305 13.1937 134.078 12.8377 133.202 12.1258L131.887 11.1468L128.251 13.9947C126.279 15.5521 124.482 16.9315 124.219 17.065C124 17.1985 121.81 16.4866 119.4 15.4186Z" fill="white"/>
<path d="M102.53 10.9688C101.742 10.0344 102.311 8.87741 103.494 9.0554C104.634 9.18889 105.116 10.6573 104.195 11.2358C103.407 11.7698 103.144 11.7253 102.53 10.9688Z" fill="white"/>
<path d="M61.3429 9.50034C61.3429 8.74387 63.4461 7.27544 66.557 5.896C72.5161 3.27061 77.5111 1.80217 85.4419 0.46723C89.0349 -0.155743 102.881 -0.155743 105.817 0.46723C107.043 0.734218 109.103 1.1792 110.417 1.40169C117.866 2.82563 127.944 6.42997 127.944 7.67592C127.944 8.25439 127.9 8.25439 121.371 5.896C111.688 2.33615 105.378 1.31269 94.2052 1.44619C83.2949 1.53518 73.8744 3.71559 65.1987 8.1209C61.562 9.98982 61.3429 10.0343 61.3429 9.50034Z" fill="white"/>
</svg>
